<svg id="Vektör_Akıllı_Nesne" data-name="Vektör Akıllı Nesne" xmlns="http://www.w3.org/2000/svg" width="577.996" height="116.34" viewBox="0 0 577.996 116.34">
  <path id="Path_1" data-name="Path 1" d="M227.235,657.089h21.189l-30.665,42.748,31.262,46.3H226.872l-28.178-43.689h-.239v43.689H180.691V657.089h17.765v41.8h.239Z" transform="translate(-125.993 -657.056)" fill="#fff"/>
  <path id="Path_2" data-name="Path 2" d="M302.458,723.028l-14.207,1.3c-7.817.716-10.422,3.084-10.422,7.471,0,5.447,4.98,7.1,10.66,7.1,5.328,0,13.969-2.96,13.969-10.294Zm.712,18.594h-.234c-5.687,7.462-13.74,9.587-20.84,9.587-9.6,0-21.316-4.73-21.316-18.589,0-6.507,2.134-17.285,25.937-18.7l15.742-.95v-2.841c0-7.221-4.5-10.771-11.954-10.771-6.99,0-11.139,3.549-11.487,9H262.673c.593-9.357,7.224-21.325,28.536-21.325,15.041,0,27.6,5.694,27.6,19.663v35.292a34.243,34.243,0,0,0,.82,7.576H303.17Z" transform="translate(-135.139 -660.475)" fill="#fff"/>
  <rect id="Rectangle_1" data-name="Rectangle 1" width="17.058" height="89.048" transform="translate(196.688 0.033)" fill="#fff"/>
  <path id="Path_3" data-name="Path 3" d="M417.243,713.087c-.593-5.921-5.1-13.03-13.264-13.03-8.879,0-13.262,6.164-14.212,13.03Zm-27.475,10.9c.71,7.1,5.085,14.2,14.212,14.2a13.151,13.151,0,0,0,12.19-7.217l16.584,1.3c-4.14,12.435-15.276,18.944-29.6,18.944-18.356,0-31.15-12.552-31.15-31.97,0-19.658,12.794-32.215,31.15-32.215S434.3,699.585,434.3,719.244v4.742Z" transform="translate(-147.84 -660.475)" fill="#fff"/>
  <path id="Path_4" data-name="Path 4" d="M155.982,657.052h-7.36v4.86h-7.413v-4.86h-7.413v4.86h-7.418v-4.86h-7.413l-.022,36.991h37.041Z" transform="translate(-118.941 -657.052)" fill="#df281e"/>
  <path id="Path_5" data-name="Path 5" d="M512.3,678.42h-.234l-11.207,34.448h22.769Zm16.048,48.842H495.9l-5.78,18.523H471.008l32.327-88.721h18.64l31.854,88.721H534.362Z" transform="translate(-159.147 -657.054)" fill="#fff"/>
  <path id="Path_6" data-name="Path 6" d="M572.351,688.551H588.63v11.681h.241c3.185-8.615,9.435-13.332,17.459-13.332h2.359v16.517h-3.776c-8.732,0-15.574,5.306-15.574,16.044v29.732H572.351Z" transform="translate(-170.72 -660.461)" fill="#fff"/>
  <path id="Path_7" data-name="Path 7" d="M650.341,701.292c-9.085,0-14.747,7.552-14.747,16.872,0,14.628,10.028,17.932,15.334,17.932,4.486,0,14.988-2.125,14.988-17.344,0-11.09-5.547-17.461-15.574-17.461m15.808-12.741h16.284v59.7c0,18.285-13.213,28.553-32.566,28.553-17.459,0-27.253-7.9-29.495-20.646h17.461c1.413,4.6,4.365,7.671,12.508,7.671,5.9,0,14.628-2.48,15.215-14.632l.479-10.383-.241-.234c-3.891,8.377-10.973,11.207-19.584,11.207-15.221,0-28.315-11.919-28.315-31.619,0-16.991,11.8-31.265,29.021-31.265,9.2,0,16.048,4.718,19,11.207h.233Z" transform="translate(-175.921 -660.461)" fill="#fff"/>
  <path id="Path_8" data-name="Path 8" d="M746.461,712.856c-.589-5.9-5.072-12.977-13.211-12.977-8.848,0-13.218,6.132-14.159,12.977Zm-27.37,10.854c.705,7.078,5.072,14.155,14.159,14.155a13.109,13.109,0,0,0,12.151-7.2l16.517,1.3c-4.131,12.386-15.219,18.878-29.495,18.878-18.29,0-31.031-12.508-31.031-31.855,0-19.584,12.741-32.091,31.031-32.091s31.029,12.508,31.029,32.091v4.719Z" transform="translate(-185.456 -660.461)" fill="#fff"/>
</svg>
