<?xml version="1.0" encoding="utf-8"?>
<!-- Generator: Adobe Illustrator 28.1.0, SVG Export Plug-In . SVG Version: 6.00 Build 0)  -->
<svg version="1.1" id="katman_1" xmlns="http://www.w3.org/2000/svg" xmlns:xlink="http://www.w3.org/1999/xlink" x="0px" y="0px"
	 viewBox="0 0 166 33.4" enable-background="new 0 0 166 33.4" xml:space="preserve">
<g>
	<path id="Path_1" fill="#FFFFFF" d="M29.1,0h6.1l-8.8,12.3l9,13.3H29L20.9,13h-0.1v12.5h-5.1V0h5.1v12h0.1L29.1,0z"/>
	<path id="Path_2" fill="#FFFFFF" d="M48.1,18L44,18.3c-2.2,0.2-3,0.9-3,2.1c0,1.6,1.4,2,3.1,2c1.5,0,4-0.9,4-3V18z M48.3,23.3
		L48.3,23.3c-1.7,2.1-4,2.8-6.1,2.8c-2.8,0-6.1-1.4-6.1-5.3c0-1.9,0.6-5,7.4-5.4l4.5-0.3v-0.8c0-2.1-1.3-3.1-3.4-3.1
		c-2,0-3.2,1-3.3,2.6h-4.7c0.2-2.7,2.1-6.1,8.2-6.1c4.3,0,7.9,1.6,7.9,5.6v10.1c0,0.7,0.1,1.5,0.2,2.2h-4.7V23.3z"/>
	<rect id="Rectangle_1" x="56.5" y="0" fill="#FFFFFF" width="4.9" height="25.6"/>
	<path id="Path_3" fill="#FFFFFF" d="M77.4,15.1c-0.2-1.7-1.5-3.7-3.8-3.7c-2.6,0-3.8,1.8-4.1,3.7H77.4z M69.5,18.2
		c0.2,2,1.5,4.1,4.1,4.1c1.5,0.1,2.8-0.8,3.5-2.1l4.8,0.4c-1.2,3.6-4.4,5.4-8.5,5.4c-5.3,0-8.9-3.6-8.9-9.2c0-5.6,3.7-9.3,8.9-9.3
		c5.3,0,8.9,3.6,8.9,9.3v1.4L69.5,18.2z"/>
	<path id="Path_4" fill="#DF281E" d="M10.6,0H8.5v1.4H6.4V0H4.3v1.4H2.1V0H0l0,10.6h10.6L10.6,0z"/>
	<path id="Path_5" fill="#FFFFFF" d="M101.4,6.1L101.4,6.1L98.1,16h6.5L101.4,6.1z M106,20.2h-9.3l-1.7,5.3h-5.5L98.9,0h5.4
		l9.1,25.5h-5.6L106,20.2z"/>
	<path id="Path_6" fill="#FFFFFF" d="M115.3,8.1h4.7v3.4h0.1c0.9-2.5,2.7-3.8,5-3.8h0.7v4.7h-1.1c-2.5,0-4.5,1.5-4.5,4.6v8.5h-4.9
		V8.1z"/>
	<path id="Path_7" fill="#FFFFFF" d="M136.3,11.7c-2.6,0-4.2,2.2-4.2,4.8c0,4.2,2.9,5.2,4.4,5.2c1.3,0,4.3-0.6,4.3-5
		C140.7,13.6,139.1,11.7,136.3,11.7 M140.8,8.1h4.7v17.1c0,5.3-3.8,8.2-9.4,8.2c-5,0-7.8-2.3-8.5-5.9h5c0.4,1.3,1.3,2.2,3.6,2.2
		c1.7,0,4.2-0.7,4.4-4.2l0.1-3l-0.1-0.1c-1.1,2.4-3.2,3.2-5.6,3.2c-4.4,0-8.1-3.4-8.1-9.1c0-4.9,3.4-9,8.3-9c2.6,0,4.6,1.4,5.5,3.2
		h0.1V8.1z"/>
	<path id="Path_8" fill="#FFFFFF" d="M161.1,15c-0.2-1.7-1.5-3.7-3.8-3.7c-2.5,0-3.8,1.8-4.1,3.7H161.1z M153.3,18.2
		c0.2,2,1.5,4.1,4.1,4.1c1.5,0,2.8-0.8,3.5-2.1l4.7,0.4c-1.2,3.6-4.4,5.4-8.5,5.4c-5.3,0-8.9-3.6-8.9-9.1c0-5.6,3.7-9.2,8.9-9.2
		s8.9,3.6,8.9,9.2v1.4L153.3,18.2z"/>
</g>
</svg>
