<svg xmlns="http://www.w3.org/2000/svg" xmlns:xlink="http://www.w3.org/1999/xlink" width="166" height="24" viewBox="0 0 166 24">
    <defs>
        <path id="a" d="M.235.067h15.134v16.466H.235z"/>
    </defs>
    <g fill="none" fill-rule="evenodd">
        <path fill="#FFF" d="M26.038.696h5.45L23.6 11.664l8.04 11.88h-5.696l-7.247-11.21h-.062v11.21h-4.568V.695h4.568V11.42h.062z"/>
        <g transform="translate(32.077 7.434)">
            <mask id="b" fill="#fff">
                <use xlink:href="#a"/>
            </mask>
            <path fill="#FFF" d="M11.137 14.073h-.06c-1.463 1.915-3.533 2.46-5.36 2.46-2.468 0-5.482-1.214-5.482-4.77 0-1.669.549-4.434 6.671-4.798l4.048-.244v-.729c0-1.853-1.156-2.764-3.074-2.764-1.797 0-2.864.91-2.955 2.309H.723C.874 3.136 2.581.067 8.062.067c3.868 0 7.097 1.46 7.097 5.044v9.054c0 .82.09 1.367.21 1.944h-4.232v-2.036zm-.183-4.77L7.3 9.636c-2.01.183-2.68.79-2.68 1.916 0 1.398 1.28 1.822 2.742 1.822 1.37 0 3.592-.76 3.592-2.641V9.302z" mask="url(#b)"/>
        </g>
        <path fill="#FFF" d="M50.585 23.543h4.387V.696h-4.387zM62.22 16.982c.182 1.82 1.307 3.644 3.655 3.644 1.339 0 2.528-.638 3.135-1.852l4.265.334c-1.065 3.19-3.93 4.86-7.613 4.86-4.721 0-8.012-3.22-8.012-8.202 0-5.044 3.29-8.266 8.012-8.266 4.72 0 8.009 3.222 8.009 8.266v1.216H62.219zm7.065-2.796c-.152-1.52-1.312-3.343-3.41-3.343-2.284 0-3.411 1.582-3.656 3.343h7.066z"/>
        <path fill="#E55438" d="M7.634.688v1.247H5.727V.688H3.821v1.247H1.912V.688H.006L0 10.178h9.527V.688z"/>
        <g fill="#FFF">
            <path d="M91.001 11.203h10.538c-.183 8.452-4.86 12.693-11.145 12.693-6.772 0-11.114-5.696-11.114-11.815S83.622.267 90.394.267c7.5 0 9.565 4.666 10.415 7.09l-4.767.301c-.82-1.999-2.46-3.331-5.648-3.331-3.583 0-6.377 2.907-6.377 7.754 0 4.09 2.58 7.756 6.68 7.756 3.675 0 5.375-2.606 5.77-4.756h-5.466v-3.878zM103.936 7.901h4.19V10.9h.061c.82-2.212 2.428-3.423 4.494-3.423h.608v4.24h-.973c-2.246 0-4.008 1.364-4.008 4.12v7.635h-4.372V7.901zM125.89 21.442h-.062c-1.305 1.878-2.853 2.454-4.615 2.454-3.765 0-5.465-2.424-5.465-5.423V7.901h4.372v9.481c0 2.242 1.367 3 2.733 3 1.761 0 2.853-1.515 2.853-3.635V7.9h4.374v15.57h-4.19v-2.03zM132.72.691h4.373v9.33h.06c1.458-1.907 2.947-2.544 4.95-2.544 4.495 0 7.228 3.847 7.228 8.179 0 4.332-2.946 8.24-7.288 8.24-2.005 0-3.826-.757-5.072-2.606h-.06v2.181h-4.19V.691zm8.23 10.481c-2.733 0-4.008 2.212-4.008 4.545 0 2.604 1.396 4.664 3.886 4.664 2.582 0 3.948-2.15 3.948-4.604 0-2.362-1.307-4.605-3.826-4.605zM161.627 21.442h-.061c-1.306 1.878-2.854 2.454-4.615 2.454-3.766 0-5.466-2.424-5.466-5.423V7.901h4.372v9.481c0 2.242 1.367 3 2.734 3 1.76 0 2.853-1.515 2.853-3.635V7.9h4.374v15.57h-4.19v-2.03z"/>
        </g>
    </g>
</svg>
